<?xml version="1.0" standalone="no"?>
<!DOCTYPE svg PUBLIC "-//W3C//DTD SVG 20010904//EN"
 "http://www.w3.org/TR/2001/REC-SVG-20010904/DTD/svg10.dtd">
<svg version="1.0" xmlns="http://www.w3.org/2000/svg"
 width="2752.000000pt" height="1536.000000pt" viewBox="0 0 2752.000000 1536.000000"
 preserveAspectRatio="xMidYMid meet">
<metadata>
Created by potrace 1.16, written by Peter Selinger 2001-2019
</metadata>
<!-- Fondo blanco para que la L, P y silueta de mujer se vean en blanco -->
<rect width="2752" height="1536" fill="#FFFFFF"/>
<g transform="translate(0.000000,1536.000000) scale(0.100000,-0.100000)"
fill="#4DB6AC" stroke="none" fill-rule="evenodd">
<path d="M0 7680 l0 -7680 13760 0 13760 0 0 7680 0 7680 -13760 0 -13760 0 0
-7680z m12460 4805 c0 -25 -4 -45 -9 -45 -37 0 -327 -56 -393 -76 -97 -29
-210 -83 -262 -126 -99 -81 -173 -238 -200 -420 -15 -97 -24 -498 -11 -498 2
0 53 17 112 39 152 54 614 194 759 230 375 94 700 147 1209 197 242 24 794 25
1045 1 576 -54 982 -149 1399 -327 401 -171 721 -384 1018 -679 497 -493 791
-1134 832 -1809 49 -804 -291 -1632 -891 -2172 -232 -209 -440 -350 -713 -485
-504 -249 -1064 -373 -1705 -376 -182 -1 -221 6 -239 40 -21 38 5 46 185 59
360 25 683 106 937 233 471 237 876 763 1072 1396 123 394 175 767 175 1243 0
610 -95 1095 -295 1505 -121 248 -218 386 -397 567 -233 235 -481 387 -813
497 -376 125 -648 165 -1135 165 -604 0 -979 -46 -1740 -211 -224 -49 -617
-170 -757 -233 l-63 -29 0 -2991 0 -2992 38 7 c60 11 220 77 335 139 274 147
547 409 670 642 172 330 212 754 97 1052 -31 82 -112 238 -238 461 -213 379
-302 615 -347 922 -82 568 145 1193 610 1678 120 125 242 226 403 333 121 80
152 97 152 83 0 -2 -53 -48 -117 -102 -250 -208 -462 -453 -593 -687 -80 -142
-169 -408 -206 -616 -22 -120 -25 -435 -6 -565 40 -267 145 -580 270 -800 122
-216 403 -661 608 -962 197 -289 310 -459 372 -561 31 -51 60 -91 63 -90 4 2
83 104 176 228 253 338 388 514 479 627 90 110 121 160 107 174 -5 5 -101 41
-214 81 -214 76 -264 100 -241 116 15 10 5 12 222 -28 239 -43 379 -60 605
-71 353 -18 544 13 654 106 83 71 95 199 34 374 -42 122 -44 164 -13 257 25
74 23 83 -35 163 -33 45 -33 94 0 133 49 58 46 110 -15 211 -22 36 -40 74 -40
85 0 20 45 87 75 112 10 8 31 35 47 59 70 111 21 189 -270 430 -112 93 -168
161 -218 266 -43 89 -60 173 -74 355 -16 221 -30 346 -51 449 -30 146 -104
356 -181 513 l-71 143 -14 -55 c-69 -272 -185 -498 -372 -728 -90 -111 -139
-167 -382 -434 -216 -238 -314 -356 -363 -436 -52 -86 -112 -219 -130 -289
-77 -297 50 -613 348 -862 81 -68 97 -92 44 -65 -244 125 -477 401 -564 669
-50 154 -42 385 19 530 68 163 246 365 552 626 322 274 569 562 670 782 66
144 93 268 103 477 l7 145 62 -105 c136 -230 299 -638 357 -892 23 -101 36
-263 36 -458 0 -203 12 -268 67 -373 42 -80 108 -155 238 -270 229 -203 285
-268 285 -332 0 -34 -41 -112 -82 -155 -80 -83 -83 -103 -32 -178 19 -29 40
-77 46 -106 10 -48 9 -59 -15 -125 -15 -40 -27 -75 -27 -79 0 -4 18 -29 40
-56 22 -26 40 -58 40 -71 0 -12 -11 -57 -25 -99 -32 -97 -31 -113 4 -218 76
-225 55 -381 -65 -487 -124 -109 -364 -160 -684 -145 l-145 6 -31 -33 c-16
-19 -58 -77 -91 -129 -33 -52 -193 -297 -355 -545 -162 -247 -308 -472 -325
-499 l-31 -48 93 -192 c216 -442 348 -850 406 -1256 19 -128 23 -199 23 -410
0 -271 -9 -378 -50 -570 -49 -231 -97 -376 -201 -605 -47 -104 -60 -141 -50
-148 16 -11 310 -1 472 17 707 79 1146 267 1465 628 250 282 428 694 510 1178
12 68 26 130 32 137 14 18 55 16 62 -2 3 -8 6 -500 6 -1093 l1 -1077 -3600 -2
-3601 -3 0 50 c0 49 0 49 38 55 86 14 352 84 417 110 240 95 373 237 431 458
45 175 44 -6 44 4413 0 4054 -1 4174 -19 4275 -45 245 -141 382 -334 474 -105
51 -189 74 -373 104 -71 12 -144 24 -161 27 -32 5 -33 7 -33 49 l0 45 1515 0
1515 0 0 -45z m1650 -1694 c0 -5 -53 -51 -117 -102 -435 -344 -726 -647 -887
-926 -204 -350 -263 -783 -153 -1108 64 -187 205 -382 372 -515 134 -106 382
-240 608 -327 108 -41 125 -53 76 -53 -80 0 -366 98 -536 183 -214 108 -436
293 -550 459 -146 211 -213 419 -213 663 0 200 43 374 145 580 183 374 499
681 1100 1067 144 93 155 98 155 79z"/>
<path d="M13230 6110 c0 -20 -104 -190 -171 -280 -120 -163 -294 -319 -514
-463 -110 -71 -374 -202 -510 -252 -93 -35 -413 -125 -442 -125 -11 0 -13
-209 -13 -1107 0 -714 4 -1121 10 -1144 20 -73 -58 -68 1216 -69 906 0 1143 2
1151 12 12 16 96 270 118 358 68 269 88 441 88 740 0 255 -13 405 -53 600 -72
347 -243 760 -467 1128 -7 12 -18 22 -23 22 -5 0 -75 -100 -156 -222 -81 -123
-155 -235 -166 -251 -41 -60 -246 -400 -325 -542 -167 -297 -475 -949 -615
-1300 -46 -116 -47 -117 -58 -110 -11 7 121 393 233 680 19 50 65 169 102 265
188 494 395 933 669 1424 l167 299 -55 91 c-120 198 -186 286 -186 246z"/>
</g>
</svg>
